<svg width="36" height="20" viewBox="0 0 36 20" fill="none" xmlns="http://www.w3.org/2000/svg">
<path d="M36 3.51325C36 9.74091 5.97799 16.6149 3.7047 16.6149C2.43017 16.6149 0.984113 16.3211 0.984113 15.1461C0.984113 14.7535 1.43723 14.1861 2.23235 13.502L2.23147 13.5025L0.124054 9.75803C-0.161299 9.25109 0.0649363 8.60885 0.604936 8.39261L0.967113 8.24761C1.62352 7.98479 2.36229 8.02397 2.98717 8.35473L6.81299 10.3801C8.30258 9.49662 9.99235 8.57156 11.7733 7.66079L4.31776 2.82378C3.72794 2.44107 3.73423 1.57554 4.32958 1.20154L4.93947 0.818362C5.95452 0.180654 7.18852 -0.00769863 8.34758 0.298008L20.7505 3.56954C24.6177 2.0346 28.1141 0.98695 30.1836 0.98695C30.7363 0.98695 31.2899 1.0016 31.824 1.03977L28.0785 2.73066L27.9888 3.99055L33.7706 1.33272C35.1565 1.66325 36 2.28013 36 3.51325ZM20.9113 14.2635L25.5376 19.5191C25.8196 19.8393 26.2788 19.9358 26.6656 19.7559L27.2852 19.4679C28.4151 18.9428 29.0806 17.7519 28.9359 16.5145L28.3567 11.5623C28.3208 11.2559 28.0099 11.062 27.7189 11.1644L21.1125 13.4916C20.791 13.605 20.6859 14.0076 20.9113 14.2635Z" fill="white"/>
</svg>
