<svg width="33" height="31" viewBox="0 0 33 31" fill="none" xmlns="http://www.w3.org/2000/svg">
<path d="M29.1056 17.2858L28.8067 18.3564C27.1078 24.4421 20.9086 28.2823 14.7763 26.7603C8.8862 25.2985 5.22557 19.5911 6.10579 13.7764L7.88056 14.2718C8.29193 14.3866 8.67342 14.0131 8.56714 13.5993L6.63708 6.08376C6.53085 5.67007 6.01666 5.52653 5.71146 5.82536L0.166983 11.2543C-0.138212 11.5531 -0.00545772 12.0703 0.406017 12.1852L2.33781 12.7245C0.896163 20.59 5.74861 28.4239 13.6671 30.4859C21.8895 32.6271 30.2762 27.5376 32.5609 19.3538L32.8466 18.3302C32.929 18.0351 32.7565 17.7291 32.4614 17.6466L29.7892 16.9006C29.494 16.8182 29.188 16.9907 29.1056 17.2858ZM32.2632 12.6028L29.4609 12.9668C29.157 13.0063 28.9427 13.2846 28.9821 13.5885L29.0925 14.4385C29.132 14.7424 29.4104 14.9567 29.7142 14.9172L32.5165 14.5531C32.8204 14.5136 33.0347 14.2353 32.9953 13.9314L32.8848 13.0815C32.8454 12.7776 32.5671 12.5633 32.2632 12.6028ZM30.1059 7.30745L27.6441 8.6948C27.3771 8.84524 27.2826 9.18359 27.4331 9.45061L27.8538 10.1973C28.0043 10.4642 28.3426 10.5587 28.6097 10.4083L31.0714 9.02091C31.3384 8.87047 31.4329 8.53211 31.2824 8.2651L30.8617 7.51845C30.7112 7.25148 30.3728 7.15701 30.1059 7.30745ZM26.1221 3.20586L24.3592 5.41437C24.168 5.65384 24.2072 6.00304 24.4467 6.19413L25.1166 6.72882C25.356 6.92002 25.7052 6.88082 25.8963 6.6413L27.6592 4.43279C27.8504 4.19327 27.8112 3.84413 27.5717 3.65298L26.9019 3.11829C26.6624 2.92719 26.3132 2.96634 26.1221 3.20586ZM20.8919 0.895268L20.0847 3.60337C19.9971 3.89702 20.1643 4.2061 20.4579 4.29362L21.2792 4.53842C21.5728 4.62599 21.8819 4.45883 21.9695 4.16523L22.7767 1.45713C22.8642 1.16347 22.6971 0.85445 22.4035 0.766881L21.5821 0.522078C21.2885 0.434509 20.9794 0.601612 20.8919 0.895268ZM15.1769 0.712205L15.4429 3.5255C15.4718 3.83059 15.7425 4.05453 16.0476 4.02568L16.9008 3.94496C17.2059 3.91611 17.4298 3.64543 17.401 3.34034L17.1349 0.527039C17.1061 0.221951 16.8354 -0.00193143 16.5303 0.0269166L15.6771 0.107583C15.372 0.136431 15.1481 0.407117 15.1769 0.712205ZM9.8096 2.68336L11.1101 5.19211C11.2511 5.46414 11.586 5.57037 11.8581 5.42931L12.619 5.03493C12.8911 4.89387 12.9973 4.55902 12.8562 4.28693L11.5557 1.77818C11.4147 1.50614 11.0798 1.39992 10.8077 1.54098L10.0468 1.93541C9.77477 2.07636 9.6686 2.41127 9.8096 2.68336Z" fill="white"/>
<path d="M15.3711 19.1668H13.4131V13.0288H11.9941V11.4558H15.3711V19.1668Z" fill="white"/>
<path d="M18.9913 15.9878H20.6193V14.3378H22.4343V15.9878H23.4793V17.4728H22.4343V19.1668H20.6193V17.4728H16.9673V16.1638L19.3983 11.4668H21.2793L18.9913 15.9878Z" fill="white"/>
</svg>
