<svg width="30" height="30" viewBox="0 0 30 30" fill="none" xmlns="http://www.w3.org/2000/svg">
<path d="M7.01033 6.08292L18.9699 2.81847L18.3366 1.53829C17.9222 0.70617 16.9115 0.362542 16.0794 0.776916L5.37305 6.08292H7.01033Z" fill="white"/>
<path d="M22.6826 2.91284C22.5344 2.91284 22.3861 2.93306 22.2379 2.97348L19.4283 3.74159L10.8477 6.08297H20.5871H24.8319L24.3064 4.15596C24.1043 3.4047 23.4237 2.91284 22.6826 2.91284Z" fill="white"/>
<path d="M26.5873 7.26221H26.2033H25.6811H25.1589H21.1735H6.52892H4.60865H2.99158H2.69175H1.68782C1.15553 7.26221 0.680517 7.50814 0.370578 7.89556C0.229085 8.07411 0.12128 8.27961 0.0606401 8.50533C0.0235823 8.64682 0 8.79505 0 8.94665V9.14879V11.0691V27.7148C0 28.6446 0.754632 29.3992 1.68445 29.3992H26.5839C27.5138 29.3992 28.2684 28.6446 28.2684 27.7148V23.0152H18.2729C16.6929 23.0152 15.4093 21.7316 15.4093 20.1516V18.6086V18.0865V17.5643V16.4054C15.4093 15.6305 15.7192 14.9265 16.2212 14.411C16.6659 13.9528 17.2622 13.6429 17.9293 13.5654C18.0404 13.552 18.155 13.5452 18.2695 13.5452H26.8669H27.3891H27.9113H28.2684V8.94665C28.2718 8.01684 27.5171 7.26221 26.5873 7.26221Z" fill="white"/>
<path d="M29.4504 15.1552C29.2819 15.0002 29.0832 14.8823 28.8608 14.8048C28.689 14.7476 28.5071 14.7139 28.3151 14.7139H28.2713H28.2376H27.7154H25.8322H18.2723C17.3425 14.7139 16.5879 15.4685 16.5879 16.3983V17.2371V17.7593V18.2815V20.1479C16.5879 21.0777 17.3425 21.8323 18.2723 21.8323H28.2713H28.3151C28.5071 21.8323 28.689 21.7986 28.8608 21.7413C29.0832 21.6672 29.2819 21.546 29.4504 21.391C29.7873 21.0844 29.9995 20.6397 29.9995 20.1479V16.3983C29.9995 15.9064 29.7873 15.4617 29.4504 15.1552ZM21.7895 18.6083C21.7895 19.0732 21.4122 19.4505 20.9473 19.4505H20.388C19.9231 19.4505 19.5458 19.0732 19.5458 18.6083V18.049C19.5458 17.7795 19.6704 17.5403 19.8692 17.3887C20.0141 17.2775 20.1927 17.2068 20.388 17.2068H20.5295H20.9473C21.4122 17.2068 21.7895 17.5841 21.7895 18.049V18.6083Z" fill="white"/>
</svg>
