<svg width="33" height="31" viewBox="0 0 33 31" fill="none" xmlns="http://www.w3.org/2000/svg">
<path d="M32.3147 5.30631L28.7071 0.780366C28.3664 0.352823 27.8494 0.10376 27.3026 0.10376H8.6571C8.11039 0.10376 7.59345 0.352823 7.25267 0.780311L3.64516 5.30631C3.26831 5.77915 2.95993 6.66071 2.95993 7.32621V10.6414C3.24647 10.1906 3.66528 9.85226 4.1675 9.67917C4.19559 9.30032 4.31044 8.9329 4.50688 8.59832C4.84718 8.01867 5.39308 7.60649 6.04375 7.43723C6.27701 7.3763 6.49059 7.34869 6.70412 7.34869C7.56444 7.34869 8.34403 7.78632 8.80053 8.47382C8.93647 8.45014 9.07364 8.43785 9.21136 8.43785C9.63378 8.43785 10.033 8.554 10.3807 8.75415L12.379 8.23441C12.6294 8.16905 12.8867 8.13621 13.1445 8.13621C14.5266 8.13621 15.7347 9.07105 16.0828 10.4098L19.999 25.4611C20.2033 26.2464 20.0893 27.0641 19.6788 27.764C19.268 28.4638 18.6089 28.9615 17.8236 29.1658L16.0759 29.6204H30.7548C31.9948 29.6204 32.9999 28.6153 32.9999 27.3754L32.9999 7.26538C32.9999 6.66071 32.6915 5.77915 32.3147 5.30631ZM4.82405 5.26803L6.01873 3.76917H14.1698L14.9742 2.4467H7.07289L7.95488 1.34012C8.12625 1.12514 8.38221 1.00182 8.6571 1.00182H27.3027C27.5776 1.00182 27.8336 1.12514 28.0049 1.34012L28.8869 2.4467H20.8449L21.2939 3.76917H29.9411L31.1357 5.26803H4.82405ZM5.18845 10.7981L4.68455 10.9292C4.14787 11.0688 3.82596 11.6171 3.96556 12.1538L3.97069 12.1734C4.11034 12.7101 4.65862 13.032 5.19535 12.8924L9.46873 11.7807C10.0055 11.6411 10.3273 11.0928 10.1877 10.556L10.1826 10.5364C10.0429 9.99968 9.49466 9.67777 8.95798 9.81738L8.45409 9.94846C8.18486 10.0185 7.90975 9.85701 7.83971 9.58778L7.83539 9.57139C7.67271 8.94611 7.03401 8.57109 6.40874 8.73377L6.38259 8.74057C5.75732 8.90325 5.38235 9.54195 5.54497 10.1672L5.54929 10.1836C5.61922 10.453 5.45773 10.7281 5.18845 10.7981ZM6.56587 9.39177C6.83693 9.32124 7.11387 9.48387 7.18435 9.75488C7.25488 10.0259 7.0923 10.3029 6.82119 10.3734C6.55012 10.4438 6.27324 10.2813 6.20271 10.0103C6.13223 9.73919 6.29481 9.46225 6.56587 9.39177ZM12.8638 24.8718C12.9108 25.0525 12.8024 25.2371 12.6217 25.2841L6.40464 26.9015C6.22395 26.9485 6.03933 26.84 5.99231 26.6593L5.90717 26.3322C5.86015 26.1514 5.96853 25.9668 6.14927 25.9199L12.3663 24.3025C12.547 24.2555 12.7316 24.364 12.7786 24.5446L12.8638 24.8718ZM13.622 18.3861L13.7072 18.7133C13.7542 18.8941 13.6458 19.0786 13.4651 19.1256L4.95756 21.3389C4.77681 21.3859 4.59224 21.2775 4.54522 21.0969L4.46008 20.7696C4.41306 20.5889 4.52144 20.4043 4.70218 20.3573L13.2097 18.1441C13.3904 18.0971 13.575 18.2054 13.622 18.3861ZM12.6989 16.1808L4.19144 18.394C4.0107 18.441 3.82612 18.3326 3.7791 18.1519L3.69396 17.8247C3.64694 17.644 3.75532 17.4594 3.93607 17.4124L12.4436 15.1992C12.6243 15.1522 12.8089 15.2606 12.8559 15.4413L12.941 15.7685C12.9881 15.9492 12.8797 16.1338 12.6989 16.1808ZM12.51 22.169L5.63853 23.9566C5.45778 24.0036 5.27321 23.8952 5.22619 23.7145L5.14105 23.3873C5.09403 23.2065 5.20241 23.022 5.38316 22.975L12.2546 21.1875C12.4353 21.1404 12.6199 21.2488 12.6669 21.4295L12.7521 21.7567C12.7991 21.9374 12.6907 22.122 12.51 22.169ZM18.695 25.8003L14.7793 10.7485C14.5443 9.84498 13.6212 9.30307 12.7177 9.53812L10.7223 10.0572C10.7695 10.1547 10.8087 10.2575 10.837 10.3661C11.0754 11.2826 10.5357 12.2019 9.63885 12.4352L5.42829 13.5306C4.56878 13.7542 3.64333 13.3116 3.3548 12.4717C3.30044 12.3135 3.27106 12.1544 3.26264 11.9978L1.26529 12.5174C0.361728 12.7525 -0.180182 13.6756 0.0548611 14.5791L3.97052 29.6308C4.20562 30.5345 5.12865 31.0764 6.03221 30.8413L17.4847 27.862C18.3882 27.6269 18.9301 26.7039 18.695 25.8003ZM5.60655 29.2052L2.20163 16.1168L13.654 13.1375L17.059 26.2259L5.60655 29.2052Z" fill="white"/>
</svg>
