<svg width="22" height="22" viewBox="0 0 22 22" fill="none" xmlns="http://www.w3.org/2000/svg">
<path d="M12.6837 18.4893H12.6803C12.233 18.4893 11.8691 18.8531 11.8691 19.3005V20.827C11.8691 21.2743 12.233 21.6382 12.6803 21.6382H21.1887C21.636 21.6382 21.9999 21.2743 21.9999 20.827V19.3005C21.9999 18.8531 21.636 18.4893 21.1887 18.4893H12.6837Z" fill="#1B3245"/>
<path d="M0.811203 18.4893C0.363892 18.4893 0 18.8531 0 19.3005V20.827C0 21.2743 0.363892 21.6382 0.811203 21.6382H9.31952C9.76683 21.6382 10.1307 21.2743 10.1307 20.827V19.3005C10.1307 18.8531 9.76683 18.4893 9.31952 18.4893H0.811203Z" fill="#1B3245"/>
<path d="M9.31534 16.2853H12.683V17.1257H20.9944L19.8242 6.75008C19.7838 6.39021 19.4684 6.1084 19.1063 6.1084H2.89201C2.52997 6.1084 2.21458 6.39021 2.17413 6.75008L1.00391 17.1257H9.31534V16.2853ZM9.31534 9.58316H12.683V12.8105H9.31534V9.58316Z" fill="#1B3245"/>
<path d="M18.8834 3.43884C18.8834 3.08015 18.6048 2.78592 18.2526 2.75957V1.32414C18.2526 0.831009 17.8515 0.429688 17.3582 0.429688H15.0721C14.5788 0.429688 14.1776 0.831009 14.1776 1.32414V2.75957C13.8255 2.78592 13.5469 3.08015 13.5469 3.43884V4.74435H18.8834V3.43884Z" fill="#1B3245"/>
<path d="M8.45175 3.43884C8.45175 3.08015 8.17313 2.78592 7.82098 2.75957V1.32414C7.82098 0.831009 7.41983 0.429688 6.92653 0.429688H4.64046C4.14716 0.429688 3.746 0.831009 3.746 1.32414V2.75957C3.39386 2.78592 3.11523 3.08015 3.11523 3.43884V4.74435H8.45175V3.43884Z" fill="#1B3245"/>
</svg>
