<svg width="27" height="21" viewBox="0 0 27 21" fill="none" xmlns="http://www.w3.org/2000/svg">
<path d="M21 2C21 0.89543 21.8954 0 23 0H25C26.1046 0 27 0.895431 27 2V20C27 20.5523 26.5523 21 26 21H22C21.4477 21 21 20.5523 21 20V2Z" fill="#1B3245"/>
<path d="M14 8C14 6.89543 14.8954 6 16 6H18C19.1046 6 20 6.89543 20 8V20C20 20.5523 19.5523 21 19 21H15C14.4477 21 14 20.5523 14 20V8Z" fill="#1B3245"/>
<path d="M7 4C7 2.89543 7.89543 2 9 2H11C12.1046 2 13 2.89543 13 4V20C13 20.5523 12.5523 21 12 21H8C7.44772 21 7 20.5523 7 20V4Z" fill="#1B3245"/>
<path d="M0 14C0 12.8954 0.895431 12 2 12H4C5.10457 12 6 12.8954 6 14V20C6 20.5523 5.55228 21 5 21H1C0.447715 21 0 20.5523 0 20V14Z" fill="#1B3245"/>
</svg>
