<svg width="24" height="6" viewBox="0 0 24 6" fill="none" xmlns="http://www.w3.org/2000/svg">
<path d="M9.29633 3.00006C9.29633 1.50618 10.5061 0.296387 12 0.296387C13.4939 0.296387 14.7037 1.50618 14.7037 3.00006C14.7037 4.49394 13.4939 5.70373 12 5.70373C10.5061 5.70373 9.29633 4.49394 9.29633 3.00006ZM21.2963 0.296387C19.8024 0.296387 18.5927 1.50618 18.5927 3.00006C18.5927 4.49394 19.8024 5.70373 21.2963 5.70373C22.7902 5.70373 24 4.49394 24 3.00006C24 1.50618 22.7902 0.296387 21.2963 0.296387ZM2.70367 0.296387C1.2098 0.296387 0 1.50618 0 3.00006C0 4.49394 1.2098 5.70373 2.70367 5.70373C4.19755 5.70373 5.40735 4.49394 5.40735 3.00006C5.40735 1.50618 4.19755 0.296387 2.70367 0.296387Z" fill="#1B3245"/>
</svg>
