<svg width="21" height="21" viewBox="0 0 21 21" fill="none" xmlns="http://www.w3.org/2000/svg">
<path d="M12.8075 10.7315L12.8075 10.7314L12.8081 10.7238C12.8374 10.3734 12.9223 9.35765 12.1372 8.42436L12.1371 8.42427C11.7773 7.99677 11.2839 7.78875 10.8041 7.71567C11.9883 7.62445 12.9207 6.63475 12.9207 5.42709C12.9207 4.15924 11.893 3.13172 10.6253 3.13172C9.35757 3.13172 8.32986 4.15932 8.32986 5.42709C8.32986 6.5563 9.14507 7.49496 10.2191 7.68671C9.92505 7.70044 9.63885 7.75446 9.38194 7.83579L9.38188 7.83581C8.47981 8.12151 7.87219 9.05366 8.14404 10.042L8.14405 10.0421C8.28616 10.5585 8.66324 10.9773 9.13128 11.1983C9.06738 11.5484 8.99259 11.8996 8.91597 12.2592C8.90768 12.2981 8.89938 12.3371 8.89106 12.3762C8.77635 12.9156 8.66026 13.4737 8.58439 14.0436C8.50651 14.6279 8.49476 15.2372 8.64025 15.8565L9.127 15.7422L8.64025 15.8565C8.7505 16.3258 9.01101 16.8148 9.38424 17.1924C9.75994 17.5726 10.2806 17.8683 10.9039 17.8683C11.6995 17.8683 12.4445 17.2811 12.6504 16.5331L12.6504 16.533C12.8687 15.7393 12.4526 15.1065 12.1181 14.7383C12.1179 14.7284 12.1178 14.7169 12.1181 14.7037C12.1198 14.6164 12.1308 14.5212 12.1431 14.416C12.1453 14.3975 12.1475 14.3786 12.1496 14.3595C12.2223 13.8842 12.3242 13.4158 12.4299 12.9299C12.4535 12.8215 12.4773 12.7122 12.501 12.6017C12.6297 12.0018 12.7536 11.3764 12.8075 10.7315ZM12.0466 14.6621C12.0468 14.6624 12.047 14.6626 12.0473 14.6628C12.0471 14.6626 12.0469 14.6624 12.0467 14.6622L12.0466 14.6621ZM0.5 10.5C0.5 4.97713 4.97713 0.5 10.5 0.5C16.0228 0.5 20.5 4.97714 20.5 10.5C20.5 16.0229 16.0228 20.5 10.5 20.5C4.97713 20.5 0.5 16.0229 0.5 10.5Z" fill="#1B3245" stroke="#1B3245"/>
</svg>
