<svg width="20" height="16" viewBox="0 0 20 16" fill="none" xmlns="http://www.w3.org/2000/svg">
<path d="M15.321 1.52381C15.321 0.682233 15.9743 0 16.7802 0H18.2393C19.0452 0 19.6985 0.682233 19.6985 1.52381V15.2381C19.6985 15.6589 19.3718 16 18.9689 16H16.0506C15.6477 16 15.321 15.6589 15.321 15.2381V1.52381Z" fill="#E5E5E5"/>
<path d="M10.214 6.09524C10.214 5.25366 10.8673 4.57143 11.6732 4.57143H13.1323C13.9382 4.57143 14.5914 5.25366 14.5914 6.09524V15.2381C14.5914 15.6589 14.2648 16 13.8619 16H10.9436C10.5407 16 10.214 15.6589 10.214 15.2381V6.09524Z" fill="#E5E5E5"/>
<path d="M5.10701 3.04762C5.10701 2.20604 5.76029 1.52381 6.56615 1.52381H8.02529C8.83116 1.52381 9.48444 2.20604 9.48444 3.04762V15.2381C9.48444 15.6589 9.1578 16 8.75487 16H5.83658C5.43365 16 5.10701 15.6589 5.10701 15.2381V3.04762Z" fill="#E5E5E5"/>
<path d="M0 10.6667C0 9.82509 0.653281 9.14286 1.45914 9.14286H2.91829C3.72415 9.14286 4.37743 9.82509 4.37743 10.6667V15.2381C4.37743 15.6589 4.05079 16 3.64786 16H0.729572C0.326641 16 0 15.6589 0 15.2381V10.6667Z" fill="#E5E5E5"/>
</svg>
