<svg width="21" height="16" viewBox="0 0 21 16" fill="none" xmlns="http://www.w3.org/2000/svg">
<path d="M16.3333 1.52381C16.3333 0.682233 17.0298 0 17.8889 0H19.4444C20.3036 0 21 0.682233 21 1.52381V15.2381C21 15.6589 20.6518 16 20.2222 16H17.1111C16.6816 16 16.3333 15.6589 16.3333 15.2381V1.52381Z" fill="#1B3245"/>
<path d="M10.8889 6.09524C10.8889 5.25366 11.5853 4.57143 12.4444 4.57143H14C14.8591 4.57143 15.5556 5.25366 15.5556 6.09524V15.2381C15.5556 15.6589 15.2073 16 14.7778 16H11.6667C11.2371 16 10.8889 15.6589 10.8889 15.2381V6.09524Z" fill="#1B3245"/>
<path d="M5.44444 3.04762C5.44444 2.20604 6.14089 1.52381 7 1.52381H8.55556C9.41467 1.52381 10.1111 2.20604 10.1111 3.04762V15.2381C10.1111 15.6589 9.76289 16 9.33333 16H6.22222C5.79267 16 5.44444 15.6589 5.44444 15.2381V3.04762Z" fill="#1B3245"/>
<path d="M0 10.6667C0 9.82509 0.696446 9.14286 1.55556 9.14286H3.11111C3.97022 9.14286 4.66667 9.82509 4.66667 10.6667V15.2381C4.66667 15.6589 4.31844 16 3.88889 16H0.777778C0.348223 16 0 15.6589 0 15.2381V10.6667Z" fill="#1B3245"/>
</svg>
