<svg width="107" height="30" viewBox="0 0 107 30" fill="none" xmlns="http://www.w3.org/2000/svg">
<path d="M86.1459 29.9354C80.7871 29.9354 75.4283 29.9354 70.0909 29.9354C67.657 29.9354 65.7782 28.0604 65.7782 25.5676C65.7782 18.9626 65.7782 12.379 65.7782 5.77401C65.7782 4.98567 65.7355 4.17604 65.9063 3.43031C66.376 1.40622 68.2548 0 70.347 0C80.9366 0 91.5047 0 102.094 0C104.571 0 106.684 2.08802 106.684 4.55955C106.684 11.548 106.684 18.5365 106.684 25.5463C106.684 28.2095 104.208 30.0419 102.286 29.9993C96.9063 29.8501 91.5261 29.9354 86.1459 29.9354ZM86.2313 7.7768C82.8367 7.7768 79.4207 7.7768 76.0261 7.7768C74.4035 7.7768 73.4001 8.7782 73.4001 10.3762C73.4001 13.4017 73.4001 16.4272 73.4001 19.4527C73.4001 21.3063 74.3608 22.2438 76.2183 22.2438C78.7802 22.2438 81.3422 22.2438 83.9256 22.2438C88.0674 22.2438 92.2093 22.2438 96.3725 22.2438C98.0592 22.2438 99.0412 21.2424 99.0412 19.6018C99.0412 16.5763 99.0412 13.5508 99.0412 10.5253C99.0412 8.73558 98.0805 7.7768 96.2658 7.7768C92.8925 7.7768 89.5619 7.7768 86.2313 7.7768Z" fill="#1B3245"/>
<path d="M0.0429688 29.9352C0.0429688 29.9352 13.7069 10.7169 18.7454 3.64319C20.1118 1.74693 21.9052 0.404634 24.2964 0.276796C26.9865 0.127652 28.9507 1.55517 30.4451 3.62189C32.9004 7.07351 48.5285 29.6582 48.6779 29.8926C37.2557 29.8926 25.8976 29.8926 14.4755 29.8926C14.5822 29.7008 19.8983 22.2649 19.8983 22.2649L32.0677 22.2862C29.5058 18.6854 27.0292 15.2125 24.4885 11.6331L11.2943 29.9565L0.0429688 29.9352Z" fill="#1B3245"/>
<path d="M51.4961 10.8877C54.4637 10.8877 57.3887 10.8877 60.3776 10.8877C60.3776 17.2157 60.3776 23.5223 60.3776 29.8929C57.4314 29.8929 54.4851 29.8929 51.4961 29.8929C51.4961 23.5436 51.4961 17.2583 51.4961 10.8877Z" fill="#1B3245"/>
<path d="M51.4746 0.383301C54.4849 0.383301 57.4099 0.383301 60.3775 0.383301C60.3775 2.94006 60.3775 5.4542 60.3775 8.03226C57.4099 8.03226 54.4636 8.03226 51.4746 8.03226C51.4746 5.4542 51.4746 2.94006 51.4746 0.383301Z" fill="#1B3245"/>
</svg>
