<svg width="87" height="25" viewBox="0 0 87 25" fill="none" xmlns="http://www.w3.org/2000/svg">
<path d="M70.0409 24.3511C65.6817 24.3511 61.3226 24.3511 56.9808 24.3511C55.0009 24.3511 53.4726 22.8259 53.4726 20.7981C53.4726 15.4252 53.4726 10.0697 53.4726 4.6969C53.4726 4.05562 53.4379 3.39702 53.5768 2.79041C53.9589 1.14389 55.4872 0 57.1892 0C65.8033 0 74.4 0 83.0141 0C85.0287 0 86.7481 1.69851 86.7481 3.70899C86.7481 9.39379 86.7481 15.0786 86.7481 20.7807C86.7481 22.9472 84.7335 24.4377 83.1704 24.4031C78.7939 24.2817 74.4174 24.3511 70.0409 24.3511ZM70.1103 6.32608C67.349 6.32608 64.5702 6.32608 61.8088 6.32608C60.4889 6.32608 59.6727 7.14067 59.6727 8.44055C59.6727 10.9017 59.6727 13.3628 59.6727 15.8239C59.6727 17.3317 60.4542 18.0943 61.9651 18.0943C64.0492 18.0943 66.1333 18.0943 68.2347 18.0943C71.6039 18.0943 74.9731 18.0943 78.3597 18.0943C79.7317 18.0943 80.5306 17.2797 80.5306 15.9452C80.5306 13.4841 80.5306 11.023 80.5306 8.56187C80.5306 7.10601 79.7491 6.32608 78.2729 6.32608C75.5289 6.32608 72.8196 6.32608 70.1103 6.32608Z" fill="#2B4D69"/>
<path d="M0 24.3512C0 24.3512 11.115 8.71803 15.2136 2.9639C16.3251 1.42138 17.784 0.329477 19.7291 0.225487C21.9173 0.104165 23.5151 1.26539 24.7308 2.94657C26.728 5.75431 39.4408 24.1259 39.5623 24.3166C30.2709 24.3166 21.0316 24.3166 11.7402 24.3166C11.827 24.1606 16.1514 18.1118 16.1514 18.1118L26.0507 18.1292C23.9667 15.2001 21.9521 12.375 19.8854 9.46329L9.15248 24.3686L0 24.3512Z" fill="#2B4D69"/>
<path d="M41.8555 8.85645C44.2695 8.85645 46.6488 8.85645 49.0802 8.85645C49.0802 14.004 49.0802 19.1342 49.0802 24.3163C46.6835 24.3163 44.2869 24.3163 41.8555 24.3163C41.8555 19.1515 41.8555 14.0386 41.8555 8.85645Z" fill="#2B4D69"/>
<path d="M41.8379 0.312012C44.2867 0.312012 46.666 0.312012 49.08 0.312012C49.08 2.39182 49.08 4.43696 49.08 6.5341C46.666 6.5341 44.2693 6.5341 41.8379 6.5341C41.8379 4.43696 41.8379 2.39182 41.8379 0.312012Z" fill="#2B4D69"/>
</svg>
