<svg width="20" height="22" viewBox="0 0 20 22" fill="none" xmlns="http://www.w3.org/2000/svg">
<g clip-path="url(#clip0)">
<path d="M15.2155 3.9635C15.2155 3.48143 15.0323 3.02762 14.7005 2.68666L13.0434 0.984179C12.7161 0.647912 12.2515 0.455078 11.7892 0.455078H11.6885V4.06696H15.2155L15.2155 3.9635Z" fill="#1B3245"/>
<path d="M10.7007 12.8774C10.8128 12.5276 11.0085 12.202 11.2637 11.938L15.231 7.87854V5.27092H11.1138C10.7899 5.27092 10.5469 5.00167 10.5469 4.66894V0.455078H1.75781C0.788516 0.455078 0 1.26518 0 2.26102V19.1967C0 20.1926 0.788516 21.0027 1.75781 21.0027H13.4575C14.4268 21.0027 15.231 20.1926 15.231 19.1967V14.7039L14.5871 15.3494C14.3262 15.6151 14.0206 15.8085 13.6761 15.9267L11.813 16.5657L11.5292 16.5816C11.06 16.5816 10.616 16.347 10.3402 15.9543C10.0667 15.5634 9.99231 15.0567 10.1411 14.5987L10.7007 12.8774ZM2.92969 11.2907H8.77004C9.09391 11.2907 9.35598 11.56 9.35598 11.8927C9.35598 12.2254 9.09391 12.4947 8.77004 12.4947H2.92969C2.60582 12.4947 2.34375 12.2254 2.34375 11.8927C2.34375 11.56 2.60582 11.2907 2.92969 11.2907ZM2.34375 9.48478C2.34375 9.15205 2.60582 8.8828 2.92969 8.8828H8.77004C9.09391 8.8828 9.35598 9.15205 9.35598 9.48478C9.35598 9.81751 9.09391 10.0868 8.77004 10.0868H2.92969C2.60582 10.0868 2.34375 9.81751 2.34375 9.48478ZM2.34375 14.3006C2.34375 13.9679 2.60582 13.6986 2.92969 13.6986H8.77004C9.09391 13.6986 9.35598 13.9679 9.35598 14.3006C9.35598 14.6334 9.09391 14.9026 8.77004 14.9026H2.92969C2.60582 14.9026 2.34375 14.6334 2.34375 14.3006ZM11.1138 17.3105C11.4377 17.3105 11.6997 17.5798 11.6997 17.9125C11.6997 18.2452 11.4377 18.5145 11.1138 18.5145H7.59817C7.2743 18.5145 7.01223 18.2452 7.01223 17.9125C7.01223 17.5798 7.2743 17.3105 7.59817 17.3105H11.1138ZM2.92969 7.67884C2.60582 7.67884 2.34375 7.40959 2.34375 7.07686C2.34375 6.74412 2.60582 6.47488 2.92969 6.47488H11.1138C11.4377 6.47488 11.6997 6.74412 11.6997 7.07686C11.6997 7.40959 11.4377 7.67884 11.1138 7.67884H2.92969Z" fill="#1B3245"/>
<path d="M11.7621 13.4102L11.2524 14.9814C11.176 15.2167 11.394 15.4406 11.6231 15.362L13.1515 14.8376L11.7621 13.4102Z" fill="#1B3245"/>
<path d="M16.3128 8.45361L12.4539 12.4182L14.1181 14.128C14.9903 13.2318 16.6874 11.488 17.9769 10.1632L16.3128 8.45361Z" fill="#1B3245"/>
<path d="M19.6557 6.72708C19.4497 6.51426 19.1464 6.39258 18.8248 6.39258C18.5032 6.39258 18.1999 6.51426 17.9928 6.72768L17.1414 7.60244L18.8053 9.31198C19.2715 8.83305 19.5937 8.50204 19.6569 8.43714C20.1146 7.96619 20.1145 7.19911 19.6557 6.72708Z" fill="#1B3245"/>
<path d="M19.6567 8.44022C19.6568 8.44022 19.6568 8.44015 19.6569 8.44009C19.6593 8.43765 19.6604 8.43656 19.6624 8.43457C19.6604 8.43662 19.6593 8.43771 19.6567 8.44022Z" fill="#1B3245"/>
<path d="M19.6624 8.43871C19.6654 8.43563 19.669 8.43204 19.6709 8.43018C19.669 8.4321 19.6654 8.43563 19.6624 8.43871Z" fill="#1B3245"/>
<path d="M19.6667 8.43032C19.6734 8.42369 19.6735 8.42355 19.6667 8.43032V8.43032Z" fill="#1B3245"/>
</g>
<defs>
<clipPath id="clip0">
<rect width="20" height="20.5476" fill="white" transform="translate(0 0.455078)"/>
</clipPath>
</defs>
</svg>
