<svg width="28" height="22" viewBox="0 0 28 22" fill="none" xmlns="http://www.w3.org/2000/svg">
<path d="M0 1.83333C0 0.820811 0.835735 0 1.86667 0H26.1333C27.1643 0 28 0.820811 28 1.83333C28 2.84586 27.1643 3.66667 26.1333 3.66667H1.86667C0.835735 3.66667 0 2.84586 0 1.83333Z" fill="#1B3245"/>
<path d="M0 11C0 9.98748 0.835735 9.16667 1.86667 9.16667H26.1333C27.1643 9.16667 28 9.98748 28 11C28 12.0125 27.1643 12.8333 26.1333 12.8333H1.86667C0.835735 12.8333 0 12.0125 0 11Z" fill="#1B3245"/>
<path d="M0 20.1667C0 19.1541 0.835735 18.3333 1.86667 18.3333H26.1333C27.1643 18.3333 28 19.1541 28 20.1667C28 21.1792 27.1643 22 26.1333 22H1.86667C0.835735 22 0 21.1792 0 20.1667Z" fill="#1B3245"/>
</svg>
