<svg width="21" height="23" viewBox="0 0 21 23" fill="none" xmlns="http://www.w3.org/2000/svg">
<g clip-path="url(#clip0)">
<path d="M14.9177 0.683105H6.08216C5.23656 0.683105 4.55396 1.38754 4.55396 2.25472V20.688C4.55396 21.5544 5.23656 22.2581 6.08216 22.2581H14.9177C15.7618 22.2581 16.4459 21.5544 16.4459 20.688V2.25472C16.4459 1.38754 15.7618 0.683105 14.9177 0.683105ZM8.31975 1.63756H12.6817C12.7919 1.63756 12.8814 1.80659 12.8814 2.01572C12.8814 2.22485 12.7919 2.39467 12.6817 2.39467H8.31975C8.20879 2.39467 8.12079 2.22485 8.12079 2.01572C8.12079 1.80659 8.20879 1.63756 8.31975 1.63756ZM10.5007 20.7069C9.96275 20.7069 9.52502 20.2572 9.52502 19.7037C9.52502 19.1502 9.96275 18.7021 10.5007 18.7021C11.0372 18.7021 11.4749 19.1502 11.4749 19.7037C11.4749 20.2572 11.0372 20.7069 10.5007 20.7069ZM15.3011 17.272H5.69954V3.33497H15.3011V17.272Z" fill="#1B3245"/>
</g>
<defs>
<clipPath id="clip0">
<rect width="21" height="21.575" fill="white" transform="translate(0 0.683105)"/>
</clipPath>
</defs>
</svg>
