<svg width="23" height="21" viewBox="0 0 23 21" fill="none" xmlns="http://www.w3.org/2000/svg">
<path d="M22.4368 0.756309C22.0615 0.370722 21.6105 0.177734 21.0833 0.177734H1.91667C1.38959 0.177734 0.938508 0.370722 0.562946 0.756309C0.187593 1.14202 0 1.60542 0 2.14696V15.5372C0 16.0789 0.187593 16.5423 0.562946 16.9281C0.938508 17.3137 1.38959 17.5063 1.91667 17.5063H8.43344C8.43344 17.818 8.3695 18.1383 8.2417 18.4662C8.11398 18.7944 7.98617 19.0815 7.85837 19.3275C7.73074 19.5739 7.66683 19.7542 7.66683 19.869C7.66683 20.0822 7.74265 20.2673 7.89441 20.4227C8.04609 20.5788 8.22579 20.657 8.43344 20.657H14.5668C14.7744 20.657 14.9542 20.5789 15.1058 20.4227C15.2577 20.2673 15.3335 20.0823 15.3335 19.869C15.3335 19.7626 15.2695 19.584 15.1418 19.3338C15.014 19.0837 14.8861 18.7921 14.7585 18.4602C14.6307 18.1278 14.5668 17.8099 14.5668 17.5063H21.0836C21.6106 17.5063 22.0616 17.3137 22.4369 16.9281C22.8124 16.5423 23 16.079 23 15.5372V2.14696C23.0002 1.60542 22.8123 1.14202 22.4368 0.756309ZM21.4667 12.3865C21.4667 12.4932 21.4288 12.5854 21.3529 12.6635C21.277 12.7412 21.1871 12.7802 21.0833 12.7802H1.91667C1.81291 12.7802 1.72303 12.7412 1.64717 12.6635C1.57136 12.5851 1.53338 12.4932 1.53338 12.3865V2.14696C1.53338 2.04028 1.57123 1.94803 1.64717 1.87009C1.72307 1.79228 1.81295 1.75319 1.91667 1.75319H21.0835C21.1872 1.75319 21.2773 1.79216 21.3529 1.87009C21.4288 1.94807 21.4667 2.04032 21.4667 2.14696V12.3865Z" fill="#1B3245"/>
</svg>
