<svg width="21" height="23" viewBox="0 0 21 23" fill="none" xmlns="http://www.w3.org/2000/svg">
<g clip-path="url(#clip0)">
<path d="M20.3372 4.79618H19.7787C19.7787 3.72296 19.7787 3.95484 19.7787 2.87487C19.7787 2.67619 19.622 2.51514 19.4286 2.51514H18.472C18.2786 2.51514 18.1218 2.67619 18.1218 2.87487C18.1218 3.95489 18.1218 3.72283 18.1218 4.79618H16.8991C16.9501 4.24594 16.5557 3.76413 16.0331 3.70736C15.4956 3.64913 15.019 4.05277 14.963 4.59645L14.9425 4.79614H13.2572C12.7601 5.89895 11.6871 6.61097 10.4985 6.61097C9.29353 6.61097 8.22962 5.88277 7.73973 4.79614H6.06063L6.04008 4.59645C5.98369 4.04873 5.5027 3.64942 4.96999 3.70732C4.44814 3.76408 4.05296 4.24535 4.10402 4.79623H2.87811C2.87811 3.723 2.87811 3.95489 2.87811 2.87492C2.87811 2.67623 2.72135 2.51518 2.52796 2.51518H1.57135C1.37796 2.51518 1.2212 2.67623 1.2212 2.87492C1.2212 3.95493 1.2212 3.72287 1.2212 4.79623H0.662772C0.296707 4.79618 0 5.10101 0 5.4771C0 5.85315 0.296707 6.15802 0.662772 6.15802H1.22124C1.22124 7.23125 1.22124 6.99936 1.22124 8.07933C1.22124 8.27801 1.37804 8.43907 1.57139 8.43907H2.528C2.72139 8.43907 2.87815 8.27797 2.87815 8.07933C2.87815 6.99932 2.87815 7.23137 2.87815 6.15802H4.2436C4.28556 6.56546 4.5821 9.44635 4.62591 9.87241C4.71388 10.7274 5.76224 11.0888 6.3265 10.4251L7.6942 8.81709V12.6426L4.15529 14.1198C3.74218 14.2922 3.44794 14.6753 3.38067 15.1282L2.67463 19.8836C2.56922 20.5934 3.04385 21.2565 3.73472 21.3648C4.42559 21.473 5.07109 20.9855 5.17646 20.2757L5.77414 16.2505L9.04792 14.884H11.954L15.2278 16.2505L15.8255 20.2757C15.9309 20.9855 16.5764 21.473 17.2673 21.3648C17.9581 21.2565 18.4327 20.5934 18.3273 19.8836L17.6213 15.1281C17.554 14.6752 17.2597 14.2922 16.8466 14.1197L13.2797 12.6308V8.78279L14.6765 10.4251C15.2257 11.0709 16.2865 10.7509 16.377 9.87237C16.4208 9.44702 16.7176 6.5647 16.7594 6.15798H18.1219C18.1219 7.23121 18.1219 6.99932 18.1219 8.07929C18.1219 8.27797 18.2787 8.43902 18.472 8.43902H19.4286C19.622 8.43902 19.7788 8.27793 19.7788 8.07929C19.7788 6.99928 19.7788 7.23133 19.7788 6.15798H20.3373C20.7033 6.15798 21 5.85315 21 5.47706C21 5.10101 20.7033 4.79618 20.3372 4.79618ZM6.32711 7.38548C6.27465 6.87568 6.25267 6.66259 6.20074 6.15798H7.37108C6.94706 6.6566 6.75704 6.88002 6.32711 7.38548ZM14.6759 7.38548C14.1921 6.81673 14.8135 7.54729 13.6319 6.15798H14.8022C14.7041 7.11115 14.7283 6.87636 14.6759 7.38548Z" fill="#1B3245"/>
<path d="M10.4985 5.73379C11.7055 5.73379 12.6839 4.72853 12.6839 3.48848C12.6839 2.24843 11.7055 1.24316 10.4985 1.24316C9.29146 1.24316 8.31299 2.24843 8.31299 3.48848C8.31299 4.72853 9.29146 5.73379 10.4985 5.73379Z" fill="#1B3245"/>
</g>
<defs>
<clipPath id="clip0">
<rect width="21" height="21.575" fill="white" transform="translate(0 0.523926)"/>
</clipPath>
</defs>
</svg>
