<svg width="21" height="22" viewBox="0 0 21 22" fill="none" xmlns="http://www.w3.org/2000/svg">
<g clip-path="url(#clip0)">
<path d="M5.25 16.9312V20.9766H15.75V16.9312V14.2344H5.25V16.9312ZM6.5625 15.5828H14.4375V16.9312H6.5625V15.5828ZM6.5625 18.2797H14.4375V19.6281H6.5625V18.2797Z" fill="#1B3245"/>
<path d="M15.75 4.79531V0.75H5.25V4.79531V7.49218H15.75V4.79531Z" fill="#1B3245"/>
<path d="M18.375 4.79541H17.0625V7.49228V8.84072H3.9375V7.49228V4.79541H2.625C1.3125 4.79541 0 6.14385 0 7.49228V14.2345C0 15.5829 1.3125 16.9313 2.625 16.9313H3.9375V14.2345V12.886H17.0625V14.2345V16.9313H18.375C19.6875 16.9313 21 15.5829 21 14.2345V7.49228C21 6.14385 19.6875 4.79541 18.375 4.79541Z" fill="#1B3245"/>
</g>
<defs>
<clipPath id="clip0">
<rect width="21" height="21.575" fill="white" transform="translate(0 0.0756836)"/>
</clipPath>
</defs>
</svg>
