<svg width="22" height="24" viewBox="0 0 22 24" fill="none" xmlns="http://www.w3.org/2000/svg">
<g clip-path="url(#clip0)">
<path d="M9.09644 7.23926V14.6285C9.09644 15.707 9.9505 16.5844 11.0003 16.5844C12.0501 16.5844 12.9041 15.707 12.9041 14.6285V7.23926H11.6349V12.6725C11.6349 13.0326 11.3508 13.3245 11.0003 13.3245C10.6498 13.3245 10.3657 13.0326 10.3657 12.6725V7.23926H9.09644Z" fill="#1B3245"/>
<path d="M13.5386 5.93521H15.4425V1.15394C15.4425 0.793871 15.1583 0.501953 14.8079 0.501953H7.19248C6.842 0.501953 6.55786 0.793871 6.55786 1.15394V5.93521H8.46171H13.5386ZM11.6348 3.32725C11.6348 2.96717 11.9189 2.67525 12.2694 2.67525C12.6199 2.67525 12.904 2.96717 12.904 3.32725V4.19657C12.904 4.55664 12.6199 4.84856 12.2694 4.84856C11.9189 4.84856 11.6348 4.55664 11.6348 4.19657V3.32725ZM9.09632 3.32725C9.09632 2.96717 9.38046 2.67525 9.73094 2.67525C10.0814 2.67525 10.3656 2.96717 10.3656 3.32725V4.19657C10.3656 4.55664 10.0814 4.84856 9.73094 4.84856C9.38046 4.84856 9.09632 4.55664 9.09632 4.19657V3.32725Z" fill="#1B3245"/>
<path d="M14.1732 7.23926V14.5869C14.1732 16.3817 12.7782 17.8709 11.0314 17.8883C9.26747 17.9059 7.82702 16.4368 7.82702 14.6285V7.23926H5.50009C5.14962 7.23926 4.86548 7.53118 4.86548 7.89125V19.6271C4.86548 19.8 4.93232 19.9658 5.05134 20.0881L7.80138 22.9134C7.92039 23.0357 8.08179 23.1044 8.25009 23.1044H13.7501C13.9184 23.1044 14.0798 23.0357 14.1988 22.9134L16.9489 20.0881C17.0679 19.9658 17.1347 19.8 17.1347 19.6271V7.89125C17.1347 7.53118 16.8506 7.23926 16.5001 7.23926H14.1732ZM11.8462 20.4964H10.1539C9.80346 20.4964 9.51932 20.2045 9.51932 19.8444C9.51932 19.4843 9.80346 19.1924 10.1539 19.1924H11.8462C12.1967 19.1924 12.4809 19.4843 12.4809 19.8444C12.4809 20.2045 12.1967 20.4964 11.8462 20.4964Z" fill="#1B3245"/>
</g>
<defs>
<clipPath id="clip0">
<rect width="22" height="22.6023" fill="white" transform="translate(0 0.501953)"/>
</clipPath>
</defs>
</svg>
