<svg width="19" height="20" viewBox="0 0 19 20" fill="none" xmlns="http://www.w3.org/2000/svg">
<g clip-path="url(#clip0)">
<path d="M17 4.17382C17.3544 4.17382 17.6817 4.28992 17.9521 4.48442L17.3374 1.64267C17.194 0.878286 16.6617 0.406738 15.948 0.406738H3.34366C2.70533 0.406738 2.15132 0.9146 1.99599 1.64199L1.42432 4.28541C1.60464 4.21658 1.79699 4.17378 2 4.17378H17V4.17382ZM15.0417 1.30571C15.5711 1.30571 16 1.74646 16 2.29028C16 2.83409 15.571 3.27484 15.0417 3.27484C14.5124 3.27484 14.0834 2.83409 14.0834 2.29028C14.0834 1.74646 14.5123 1.30571 15.0417 1.30571ZM12.0417 1.30571C12.571 1.30571 13 1.74646 13 2.29028C13 2.83409 12.571 3.27484 12.0417 3.27484C11.5123 3.27484 11.0833 2.83409 11.0833 2.29028C11.0833 1.74646 11.5123 1.30571 12.0417 1.30571ZM8.33333 1.43414H9.99998V2.11906H8.33333V1.43414ZM8.33333 2.80398H9.99998V3.4889H8.33333V2.80398Z" fill="#1B3245"/>
<path d="M1.99995 19.9267H16.9999C17.5513 19.9267 18 19.4657 18 18.8993V5.88584C18 5.74954 17.9726 5.61975 17.9256 5.50057C17.9133 5.46905 17.8963 5.43997 17.8809 5.41018C17.843 5.33622 17.7976 5.26804 17.744 5.20608C17.7136 5.1708 17.6806 5.13861 17.6459 5.10813C17.6359 5.18484 17.6213 5.26051 17.6036 5.33551C17.5666 5.49237 17.5129 5.64371 17.4432 5.78381C17.4279 5.81497 17.4126 5.84613 17.3956 5.87592C17.1646 6.28175 16.7896 6.57076 16.2826 6.57076H3.38397C2.95064 6.57076 2.51362 6.33891 2.18864 5.99679C2.16462 5.97144 2.14161 5.94543 2.11864 5.91872C1.97896 5.75638 1.86529 5.57284 1.78665 5.3797C1.72565 5.2304 1.68633 5.07558 1.67333 4.91943C1.59298 4.94819 1.51597 4.98347 1.44668 5.03106C1.38634 5.0725 1.33168 5.12077 1.28134 5.17421C1.25335 5.204 1.22902 5.23688 1.20469 5.26975C1.07801 5.44201 1 5.65399 1 5.88584V18.8993C0.999965 19.4657 1.44863 19.9267 1.99995 19.9267ZM9.55561 8.02623C12.4046 8.02623 14.7223 10.4074 14.7223 13.3344C14.7223 16.2614 12.4047 18.6425 9.55561 18.6425C6.70663 18.6425 4.38897 16.2614 4.38897 13.3344C4.38897 10.4074 6.7066 8.02623 9.55561 8.02623Z" fill="#1B3245"/>
<path d="M3.38385 5.88625H16.1665H16.2826C16.3455 5.88625 16.4035 5.87565 16.4579 5.85681C16.8142 5.73386 16.9829 5.2438 16.9969 4.85889H2.33984C2.37617 5.34995 2.9095 5.88625 3.38385 5.88625Z" fill="#1B3245"/>
<path d="M9.55558 17.6152C11.8533 17.6152 13.7222 15.695 13.7222 13.3345C13.7222 10.9739 11.8533 9.05371 9.55558 9.05371C7.25792 9.05371 5.38892 10.9739 5.38892 13.3345C5.38892 15.695 7.25792 17.6152 9.55558 17.6152ZM11.5693 11.0728C11.8493 11.0728 12.0763 11.3061 12.0763 11.5937C12.0763 11.8814 11.8493 12.1146 11.5693 12.1146C11.2893 12.1146 11.0623 11.8814 11.0623 11.5937C11.0626 11.3061 11.2892 11.0728 11.5693 11.0728ZM9.90259 10.0454C10.1826 10.0454 10.4096 10.2787 10.4096 10.5663C10.4096 10.854 10.1826 11.0872 9.90259 11.0872C9.62258 11.0872 9.39558 10.854 9.39558 10.5663C9.39593 10.2787 9.62258 10.0454 9.90259 10.0454ZM6.48926 12.8458C6.8376 12.58 7.49158 12.1937 8.35293 12.2023C8.98428 12.2084 9.29662 12.4399 9.61296 12.6803C9.60895 12.6502 9.60393 12.6204 9.60393 12.5893C9.60393 12.2129 9.90096 11.9078 10.2672 11.9078C10.6336 11.9078 10.9306 12.2129 10.9306 12.5893C10.9306 12.8403 10.7972 13.057 10.6006 13.1752C10.7329 13.2012 10.8792 13.218 11.0479 13.2211C11.9429 13.2372 12.3472 12.7656 12.5266 12.4022C12.6143 12.6975 12.6623 13.0101 12.6623 13.3348C12.6623 15.0974 11.2716 16.5261 9.55593 16.5261C7.84027 16.5261 6.44959 15.0974 6.44959 13.3348C6.44893 13.1676 6.46524 13.0053 6.48926 12.8458Z" fill="#1B3245"/>
</g>
<defs>
<clipPath id="clip0">
<rect width="19" height="19.5202" fill="white" transform="translate(0 0.406738)"/>
</clipPath>
</defs>
</svg>
