<svg width="22" height="24" viewBox="0 0 22 24" fill="none" xmlns="http://www.w3.org/2000/svg">
<g clip-path="url(#clip0)">
<path d="M18.0892 12.1247L17.2871 11.2999C19.9087 8.60586 19.9081 4.22408 17.2858 1.53064L18.0892 0.706543C21.1538 3.85378 21.1538 8.97744 18.0892 12.1247ZM15.8987 9.87419L16.7008 10.7002C18.9999 8.33753 18.9999 4.49368 16.7008 2.1323L15.8987 2.95639C17.7548 4.8627 17.7548 7.96787 15.8987 9.87419ZM15.2697 9.22791C16.7796 7.67724 16.7796 5.1527 15.269 3.60266L14.4669 4.42675C15.5352 5.52427 15.5352 7.30821 14.4669 8.40318L15.2697 9.22791ZM4.71415 1.53064L3.91078 0.706543C0.846798 3.85378 0.846798 8.97744 3.91078 12.1247L4.71291 11.2999C2.09125 8.60713 2.09187 4.22472 4.71415 1.53064ZM5.29791 10.7002L6.10067 9.87419C4.24454 7.96787 4.24454 4.86461 6.10067 2.95639L5.29791 2.13166C2.99822 4.49304 2.99822 8.33753 5.29791 10.7002ZM6.72972 9.22791L7.53247 8.40318C6.46544 7.3063 6.46544 5.52236 7.53309 4.42675L6.73034 3.60266C5.22037 5.15461 5.22037 7.67788 6.72972 9.22791ZM15.6146 20.8838H12.8546L11.1994 8.5963C11.9706 8.49432 12.5686 7.82511 12.5686 7.00484C12.5686 6.1151 11.8657 5.39362 10.9997 5.39362C10.133 5.39362 9.43078 6.11573 9.43078 7.00484C9.43078 7.82511 10.0288 8.49432 10.7993 8.5963L9.1448 20.8838H6.38479C5.73279 20.8838 5.20486 21.4274 5.20486 22.096C5.20486 22.7659 5.73341 23.3083 6.38479 23.3083H15.6152C16.2672 23.3083 16.7951 22.764 16.7951 22.096C16.7951 21.4274 16.2672 20.8838 15.6146 20.8838Z" fill="#1B3245"/>
</g>
<defs>
<clipPath id="clip0">
<rect width="22" height="22.6023" fill="white" transform="translate(0 0.706543)"/>
</clipPath>
</defs>
</svg>
