<svg width="21" height="23" viewBox="0 0 21 23" fill="none" xmlns="http://www.w3.org/2000/svg">
<g clip-path="url(#clip0)">
<path d="M11.0742 20.1619C11.0742 21.2074 11.9022 22.1002 12.9199 22.1002H19.1543C20.172 22.1002 21 21.2074 21 20.1619C21 19.2878 20.4184 18.5573 19.634 18.3387C19.7197 18.1203 19.7695 17.8831 19.7695 17.6335C19.7695 16.7922 19.2336 16.0774 18.494 15.8298C18.2435 14.3436 16.9322 13.209 15.3607 13.209H14.5795L14.7145 13.9565C14.7446 14.1219 14.8066 14.2978 14.8066 14.4731C14.8066 14.8534 14.7055 15.7373 14.1504 15.7373C13.1327 15.7373 12.3047 16.588 12.3047 17.6335C12.3047 17.8831 12.3545 18.1203 12.4402 18.3387C11.6558 18.5573 11.0742 19.2878 11.0742 20.1619Z" fill="#1B3245"/>
<path d="M6.15234 15.1052C6.15234 15.2626 6.80731 15.7373 7.99805 15.7373C9.1907 15.7373 9.83654 15.2682 9.84375 15.1059V15.1052C9.84071 14.9479 9.18157 14.4731 7.99805 14.4731C6.80731 14.4731 6.15234 14.9479 6.15234 15.1052Z" fill="#1B3245"/>
<path d="M9.84375 19.5299H2.46094V8.15249H9.84375V7.52041C9.84375 6.54365 9.10995 5.58203 7.99805 5.58203H1.8457C0.657051 5.65001 0 6.6136 0 7.52041V22.1004H9.84375V19.5299Z" fill="#1B3245"/>
<path d="M9.84375 10.6807V9.4165H3.69141V18.2656H9.84375V16.6405C9.33682 16.8666 8.70797 17.0015 7.99805 17.0015C6.24431 17.0015 4.92188 16.186 4.92188 15.1052C4.92188 14.0244 6.24431 13.209 7.99805 13.209C8.70957 13.209 9.33794 13.3421 9.84375 13.5668V11.9448H4.92188V10.6807H9.84375Z" fill="#1B3245"/>
<path d="M8.22051 4.31787L7.8347 3.05371H7.38289V1.78955H10.1298L11.1776 3.40431L12.2014 2.7031L10.7883 0.525391C10.4445 0.525391 1.93166 0.525391 2.46101 0.525391V3.05371H1.99366L1.65063 4.31787C1.77705 4.31787 8.34676 4.31787 8.22051 4.31787Z" fill="#1B3245"/>
</g>
<defs>
<clipPath id="clip0">
<rect width="21" height="21.575" fill="white" transform="translate(0 0.525391)"/>
</clipPath>
</defs>
</svg>
