<svg width="23" height="25" viewBox="0 0 23 25" fill="none" xmlns="http://www.w3.org/2000/svg">
<path d="M5.75006 4.63477H1.43756C0.642962 4.63477 0 5.29674 0 6.11159V22.3572C0 23.1734 0.642962 23.8339 1.43756 23.8339H5.75011C6.54466 23.8339 7.18753 23.1734 7.18753 22.3572V6.11159C7.18748 5.29674 6.54461 4.63477 5.75006 4.63477ZM2.15632 19.4034C1.759 19.4034 1.43756 19.0731 1.43756 18.6647C1.43756 18.2567 1.759 17.9265 2.15632 17.9265C2.55355 17.9265 2.87498 18.2567 2.87498 18.6647C2.87498 19.0731 2.55355 19.4034 2.15632 19.4034ZM5.75006 10.5422H1.43756V9.06539H5.75011V10.5422H5.75006ZM5.75006 7.58846H1.43756V6.11159H5.75011V7.58846H5.75006Z" fill="#1B3245"/>
<path d="M15.094 20.8805V19.4038H10.7813V20.8805C9.9869 20.8805 9.34375 21.5412 9.34375 22.3576H16.5313C16.5313 21.5412 15.8884 20.8805 15.094 20.8805Z" fill="#1B3245"/>
<path d="M21.5627 1.68115H4.31256C3.51801 1.68115 2.875 2.34313 2.875 3.15807H4.31256H8.62511H21.5627V14.9729H8.62506V17.9267H21.5627C22.3571 17.9267 23 17.2662 23 16.4495V3.15803C23 2.34308 22.3571 1.68115 21.5627 1.68115ZM12.9376 17.1882C12.5403 17.1882 12.2188 16.8582 12.2188 16.4495C12.2188 16.0415 12.5403 15.7113 12.9376 15.7113C13.335 15.7113 13.6564 16.0415 13.6564 16.4495C13.6564 16.8582 13.3349 17.1882 12.9376 17.1882Z" fill="#1B3245"/>
</svg>
