<svg width="23" height="24" viewBox="0 0 23 24" fill="none" xmlns="http://www.w3.org/2000/svg">
<g clip-path="url(#clip0)">
<path d="M10.5336 10.9825L12.2781 12.7748C12.5417 13.0447 12.9416 13.1158 13.278 12.9529L10.3603 9.95508C10.2015 10.301 10.2709 10.7118 10.5336 10.9825Z" fill="#1B3245"/>
<path d="M10.059 11.3569L10.0026 11.4149C9.48989 11.941 9.48969 12.7946 10.002 13.3209C10.5143 13.8473 11.3451 13.8471 11.8571 13.3203L11.9135 13.2624C11.8943 13.2447 11.8755 13.2263 11.8571 13.2074L10.1125 11.4149C10.0941 11.396 10.0763 11.3766 10.059 11.3569Z" fill="#1B3245"/>
<path d="M0 16.189V21.3155C1.29971 21.2073 2.3009 20.0919 2.3009 18.7522C2.3009 17.4125 1.29971 16.2971 0 16.189Z" fill="#1B3245"/>
<path d="M12.7883 2.78565C12.4972 2.78485 12.218 2.90374 12.0128 3.11564L9.05435 6.15484C8.62674 6.59536 8.62674 7.30811 9.05435 7.74843L16.6869 15.5899L23.0001 12.8102L13.5639 3.11564C13.3586 2.90374 13.0793 2.78485 12.7883 2.78565ZM20.0911 12.2603L20.3129 12.0327C20.3877 11.9536 20.4982 11.9222 20.6021 11.9503C20.7058 11.9783 20.7868 12.0616 20.8141 12.1681C20.8415 12.2749 20.8108 12.3884 20.7339 12.4653L20.5121 12.6931C20.4373 12.7719 20.3268 12.8036 20.2231 12.7755C20.1192 12.7475 20.0382 12.6642 20.0109 12.5575C19.9835 12.4507 20.0143 12.3374 20.0911 12.2603ZM18.9916 11.1306L19.2132 10.9029C19.2882 10.8239 19.3985 10.7924 19.5024 10.8205C19.6061 10.8486 19.6873 10.9318 19.7145 11.0386C19.7418 11.1451 19.7112 11.2586 19.6342 11.3355L19.4127 11.5633C19.296 11.681 19.1089 11.6802 18.9932 11.5615C18.8777 11.4426 18.8769 11.2505 18.9916 11.1306ZM17.892 10.001L18.1137 9.77317C18.2302 9.65547 18.4175 9.65627 18.533 9.77496C18.6485 9.89386 18.6493 10.086 18.5347 10.2059L18.313 10.4335C18.1963 10.5502 18.01 10.5489 17.8949 10.4306C17.7797 10.3123 17.7784 10.1209 17.892 10.001ZM16.7925 8.87123L17.0143 8.6436C17.1306 8.52411 17.319 8.52411 17.4353 8.6436C17.5516 8.76309 17.5516 8.95666 17.4353 9.07615L17.2137 9.30378C17.097 9.42167 16.91 9.42088 16.7942 9.30219C16.6787 9.18329 16.6779 8.99112 16.7925 8.87123ZM13.037 4.55727L12.8153 4.7851C12.6986 4.9018 12.5123 4.90041 12.3971 4.78211C12.282 4.66382 12.2807 4.47244 12.3942 4.35255L12.616 4.12472C12.6908 4.04566 12.8013 4.0142 12.905 4.04228C13.0089 4.07036 13.0899 4.1536 13.1173 4.26034C13.1446 4.36689 13.1138 4.4804 13.037 4.55727ZM15.6928 7.74166L15.9144 7.51403C15.9892 7.43497 16.0997 7.4035 16.2036 7.43158C16.3073 7.45946 16.3885 7.54291 16.4157 7.64945C16.443 7.7562 16.4124 7.86971 16.3354 7.94658L16.1139 8.17421C15.9976 8.2937 15.809 8.2937 15.6928 8.17421C15.5765 8.05472 15.5765 7.86115 15.6928 7.74166ZM14.5932 6.61189L14.8149 6.38406C14.8899 6.3058 15.0001 6.27493 15.1034 6.30301C15.2069 6.33109 15.2875 6.41413 15.3148 6.52028C15.3424 6.62663 15.3121 6.73974 15.236 6.81681L15.0142 7.04444C14.8977 7.16233 14.7105 7.16154 14.5949 7.04265C14.4792 6.92395 14.4786 6.73158 14.5932 6.61189ZM14.1363 5.25449C14.2526 5.37398 14.2526 5.56755 14.1363 5.68704L13.9145 5.91487C13.7978 6.03157 13.6116 6.03018 13.4964 5.91188C13.3813 5.79359 13.3801 5.60221 13.4937 5.48212L13.7153 5.25449C13.8316 5.135 14.02 5.135 14.1363 5.25449Z" fill="#1B3245"/>
<path d="M18.3618 15.5183L18.9156 16.087C19.3019 16.4841 19.9284 16.4841 20.315 16.087L20.6563 15.7363C20.9891 15.3934 21.0407 14.8569 20.7796 14.4536L18.3618 15.5183Z" fill="#1B3245"/>
<path d="M7.58681 19.6381C8.05416 19.6383 8.47364 19.3436 8.64286 18.8961C8.81208 18.4488 8.69636 17.9404 8.35152 17.6164L10.0701 13.6284L9.52561 13.3809L7.82136 17.3356C7.51373 17.2686 7.19273 17.3362 6.93551 17.522C6.67828 17.7078 6.5077 17.9951 6.46486 18.3152H2.48413V18.927H6.54317C6.72073 19.3577 7.13167 19.6375 7.58681 19.6381Z" fill="#1B3245"/>
</g>
<defs>
<clipPath id="clip0">
<rect width="23" height="23.6297" fill="white" transform="translate(0 0.211426)"/>
</clipPath>
</defs>
</svg>
