<svg width="22" height="23" viewBox="0 0 22 23" fill="none" xmlns="http://www.w3.org/2000/svg">
<path d="M20.2811 7.21058C19.1353 6.03345 17.7528 5.44482 16.1333 5.44482H5.8667C4.24737 5.44482 2.86446 6.03341 1.71882 7.21058C0.5729 8.38775 0 9.80823 0 11.472C0 13.136 0.57306 14.5564 1.71882 15.7335C2.86446 16.9106 4.2472 17.4994 5.8667 17.4994C7.33344 17.4994 8.62416 16.9969 9.73958 15.9924H12.2604C13.3757 16.9969 14.6664 17.4994 16.1333 17.4994C17.7526 17.4994 19.1353 16.9108 20.2811 15.7335C21.427 14.5561 22 13.1361 22 11.472C22 9.80823 21.427 8.38775 20.2811 7.21058ZM9.53325 12.2255C9.53325 12.3354 9.49898 12.4257 9.43019 12.4961C9.36145 12.5668 9.27367 12.6021 9.16664 12.6021H6.96662V14.8624C6.96662 14.9723 6.93235 15.0626 6.86356 15.133C6.79481 15.2037 6.70708 15.2389 6.60001 15.2389H5.13334C5.02643 15.2389 4.93854 15.2037 4.86979 15.133C4.80112 15.0626 4.76685 14.9723 4.76685 14.8624V12.6021H2.56663C2.45972 12.6021 2.37183 12.5668 2.30308 12.4961C2.23441 12.4257 2.20014 12.3354 2.20014 12.2255V10.7187C2.20014 10.6088 2.23441 10.5185 2.30308 10.4479C2.37183 10.3772 2.45972 10.342 2.56663 10.342H4.76677V8.08177C4.76677 7.97193 4.80104 7.88163 4.86971 7.811C4.93842 7.74029 5.02635 7.70512 5.13326 7.70512H6.59993C6.70696 7.70512 6.79473 7.74033 6.86348 7.811C6.93227 7.88163 6.96654 7.97193 6.96654 8.08177V10.342H9.16656C9.27359 10.342 9.36136 10.3772 9.43011 10.4479C9.4989 10.5185 9.53317 10.6088 9.53317 10.7187V12.2255H9.53325ZM15.7037 14.0442C15.4172 14.3386 15.0715 14.4858 14.6664 14.4858C14.2619 14.4858 13.916 14.3386 13.6296 14.0442C13.3431 13.7501 13.1999 13.3948 13.1999 12.9789C13.1999 12.5629 13.3431 12.2078 13.6296 11.9135C13.916 11.6195 14.2619 11.472 14.6664 11.472C15.0715 11.472 15.4172 11.6195 15.7037 11.9135C15.9899 12.2078 16.1333 12.5629 16.1333 12.9789C16.1333 13.3948 15.9899 13.7501 15.7037 14.0442ZM18.6367 11.0306C18.3505 11.3248 18.0047 11.472 17.5998 11.472C17.1949 11.472 16.8492 11.325 16.5629 11.0306C16.2764 10.7362 16.1331 10.3812 16.1331 9.96512C16.1331 9.5493 16.2764 9.19417 16.5629 8.89989C16.8492 8.60554 17.1949 8.45842 17.5998 8.45842C18.0047 8.45842 18.3505 8.60554 18.6367 8.89989C18.9232 9.19417 19.0666 9.5493 19.0666 9.96512C19.0666 10.3812 18.9234 10.7363 18.6367 11.0306Z" fill="#1B3245"/>
</svg>
