<svg width="21" height="23" viewBox="0 0 21 23" fill="none" xmlns="http://www.w3.org/2000/svg">
<g clip-path="url(#clip0)">
<path d="M18.6164 10.5566C16.7321 10.5566 15.199 12.1318 15.199 14.0676V14.7088C14.4425 14.431 12.9789 14.0676 10.5 14.0676C8.02114 14.0676 6.55806 14.431 5.8011 14.7088V14.0676C5.8011 12.1318 4.26796 10.5566 2.38369 10.5566C1.20596 10.5566 0.247803 11.541 0.247803 12.751C0.247803 13.6388 0.763832 14.4354 1.56308 14.7773C1.8023 14.88 1.95651 15.1183 1.95651 15.3842L2.38369 17.1397C2.38369 18.7153 3.54518 20.0165 5.03474 20.1908C4.68403 20.3628 4.43969 20.7279 4.43969 21.1528C4.43969 21.7444 4.90616 22.2227 5.48114 22.2227C6.05612 22.2227 6.5226 21.7435 6.5226 21.1528C6.5226 20.7429 6.29534 20.3918 5.96556 20.211H15.0358C14.706 20.3905 14.4788 20.7424 14.4788 21.1528C14.4788 21.7444 14.9452 22.2227 15.5202 22.2227C16.0952 22.2227 16.5617 21.7435 16.5617 21.1528C16.5617 20.7271 16.3178 20.3619 15.9662 20.1908C17.4545 20.0165 18.616 18.7153 18.616 17.1397L19.0431 15.3842C19.0431 15.1183 19.1974 14.8809 19.4366 14.7773C20.2358 14.4358 20.7519 13.6388 20.7519 12.751C20.7523 11.541 19.7941 10.5566 18.6164 10.5566Z" fill="#1B3245"/>
<path d="M6.97597 13.0413C7.86493 12.8745 9.02215 12.7507 10.5002 12.7507C11.9782 12.7507 13.1354 12.8745 14.0244 13.0413C14.3601 11.4525 15.461 10.1561 16.9083 9.57374V7.23104C16.9083 3.59542 14.0393 0.647949 10.5002 0.647949C6.96145 0.647949 4.09253 3.59542 4.09253 7.23104V9.57417C5.53938 10.1566 6.64021 11.453 6.97597 13.0413Z" fill="#1B3245"/>
</g>
<defs>
<clipPath id="clip0">
<rect width="21" height="21.575" fill="white" transform="translate(0 0.647949)"/>
</clipPath>
</defs>
</svg>
