<svg width="20" height="22" viewBox="0 0 20 22" fill="none" xmlns="http://www.w3.org/2000/svg">
<path d="M3.51562 7.07959H5.07812V8.68487H3.51562V7.07959Z" fill="#1B3245"/>
<path d="M8.59375 4.67173H10V3.46777H0V13.7014H8.59375V4.67173ZM6.25 9.88889H2.34375V5.87569H6.25V9.88889Z" fill="#1B3245"/>
<path d="M12.8906 6.07614H16.7969V2.86558H17.5781V1.66162H12.1094V2.86558H12.8906V6.07614Z" fill="#1B3245"/>
<path d="M19.5312 18.4369V14.9053H15.2344C16.9576 14.9053 18.3594 16.3455 18.3594 18.1158V18.4369C18.3594 19.3664 19.0953 20.1224 20 20.1224V18.9185C19.7415 18.9185 19.5312 18.7025 19.5312 18.4369Z" fill="#1B3245"/>
<path d="M9.76562 13.7014H18.6647L19.9977 11.0928L18.0495 7.28027H9.76562V13.7014Z" fill="#1B3245"/>
<path d="M15.2344 16.1089C14.1574 16.1089 13.2812 17.009 13.2812 18.1155C13.2812 19.2219 14.1574 20.1221 15.2344 20.1221C16.3113 20.1221 17.1875 19.2219 17.1875 18.1155C17.1875 17.009 16.3113 16.1089 15.2344 16.1089Z" fill="#1B3245"/>
<path d="M10 16.1089C8.92303 16.1089 8.04688 17.009 8.04688 18.1155C8.04688 19.2219 8.92303 20.1221 10 20.1221C11.077 20.1221 11.9531 19.2219 11.9531 18.1155C11.9531 17.009 11.077 16.1089 10 16.1089Z" fill="#1B3245"/>
<path d="M4.76562 16.1089C3.68866 16.1089 2.8125 17.009 2.8125 18.1155C2.8125 19.2219 3.68866 20.1221 4.76562 20.1221C5.84259 20.1221 6.71875 19.2219 6.71875 18.1155C6.71875 17.009 5.84259 16.1089 4.76562 16.1089Z" fill="#1B3245"/>
<path d="M12.6172 16.3646C13.1755 15.4869 14.1399 14.9053 15.2344 14.9053H10C11.0945 14.9053 12.0589 15.4869 12.6172 16.3646Z" fill="#1B3245"/>
<path d="M0 18.7178H1.69647C1.66031 18.5226 1.64062 18.3217 1.64062 18.1158C1.64062 16.3455 3.04245 14.9053 4.76562 14.9053H0V18.7178Z" fill="#1B3245"/>
<path d="M7.38281 16.3646C7.94113 15.4869 8.90549 14.9053 10 14.9053H4.76562C5.86014 14.9053 6.82449 15.4869 7.38281 16.3646Z" fill="#1B3245"/>
</svg>
