<svg width="25" height="27" viewBox="0 0 25 27" fill="none" xmlns="http://www.w3.org/2000/svg">
<g clip-path="url(#clip0)">
<path d="M24.9693 19.3823C24.9454 19.3538 24.9102 19.3369 24.8733 19.3369H0.126894C0.0899271 19.3369 0.0550141 19.3535 0.0308831 19.3823C0.00675208 19.4108 -0.00402986 19.449 0.00136111 19.4867C0.00495509 19.5105 0.378216 21.8646 3.27522 21.8646H21.7249C24.6217 21.8646 24.9949 19.5105 24.9988 19.4867C25.0039 19.449 24.9931 19.4108 24.9693 19.3823ZM14.3611 21.0402H10.6388V20.1608H14.3611V21.0402Z" fill="#1B3245"/>
<path d="M2.69726 18.4216H22.3024C22.5858 18.4216 22.8159 18.1853 22.8159 17.8942V5.52309C22.8159 5.23192 22.5858 4.99561 22.3024 4.99561H2.69726C2.41385 4.99561 2.18384 5.23192 2.18384 5.52309V17.8942C2.18384 18.1853 2.41385 18.4216 2.69726 18.4216ZM3.98083 6.8418H21.0189V16.5754H3.98083V6.8418Z" fill="#1B3245"/>
</g>
<defs>
<clipPath id="clip0">
<rect width="25" height="25.6845" fill="white" transform="translate(0 0.587891)"/>
</clipPath>
</defs>
</svg>
