<svg width="21" height="22" viewBox="0 0 21 22" fill="none" xmlns="http://www.w3.org/2000/svg">
<g clip-path="url(#clip0)">
<path d="M20.8737 11.3427C20.6466 10.9278 20.1165 10.7722 19.6875 11.0316L16.8101 12.743L16.0781 13.1838V17.281L16.7596 17.6959C16.7848 17.6959 16.7848 17.7218 16.8101 17.7218L19.637 19.4073C19.7632 19.511 19.9399 19.5629 20.1165 19.5629C20.5961 19.5629 20.9747 19.1739 20.9747 18.6812V15.2065L20.9999 11.7836C20.9999 11.628 20.9747 11.4724 20.8737 11.3427Z" fill="#1B3245"/>
<path d="M4.06391 10.0202C6.31028 10.0202 8.12756 8.1532 8.12756 5.84532C8.12756 3.53745 6.31028 1.67041 4.06391 1.67041C1.81754 1.67041 0.000256265 3.53745 0.000256265 5.84532C-0.0249838 8.1532 1.81754 10.0202 4.06391 10.0202ZM4.06391 4.13387C4.99779 4.13387 5.72975 4.9118 5.72975 5.84532C5.72975 6.80478 4.97255 7.55678 4.06391 7.55678C3.15527 7.55678 2.39806 6.77885 2.39806 5.84532C2.37282 4.88587 3.13003 4.13387 4.06391 4.13387Z" fill="#1B3245"/>
<path d="M14.3619 10.2535C13.7057 10.5906 12.9737 10.798 12.1912 10.798C11.2321 10.798 10.3235 10.5128 9.56628 9.99414H6.68891C5.93171 10.5128 5.02307 10.798 4.06394 10.798C3.2815 10.798 2.54954 10.6165 1.8933 10.2535C1.31278 10.5906 0.908936 11.2648 0.908936 11.9908V18.318C0.908936 19.4849 1.84282 20.4185 2.95338 20.4185H13.3271C14.4629 20.4185 15.3715 19.459 15.3715 18.318V11.9908C15.3463 11.2648 14.9424 10.5906 14.3619 10.2535Z" fill="#1B3245"/>
<path d="M12.1911 10.0202C14.4375 10.0202 16.2548 8.1532 16.2548 5.84532C16.2548 3.53745 14.4375 1.67041 12.1911 1.67041C9.94473 1.67041 8.12744 3.53745 8.12744 5.84532C8.12744 8.1532 9.94473 10.0202 12.1911 10.0202ZM12.1911 4.13387C13.125 4.13387 13.8569 4.9118 13.8569 5.84532C13.8569 6.80478 13.0997 7.55678 12.1911 7.55678C11.2825 7.55678 10.5253 6.77885 10.5253 5.84532C10.5253 4.88587 11.2572 4.13387 12.1911 4.13387Z" fill="#1B3245"/>
</g>
<defs>
<clipPath id="clip0">
<rect width="21" height="21.575" fill="white" transform="translate(0 0.256836)"/>
</clipPath>
</defs>
</svg>
