<svg width="14" height="10" viewBox="0 0 14 10" fill="none" xmlns="http://www.w3.org/2000/svg">
<path d="M13.8093 4.53992L9.64317 0.373747C9.38899 0.119558 8.97674 0.119558 8.72255 0.373747C8.46831 0.627987 8.46831 1.04013 8.72255 1.29437L11.7775 4.34926H0.650964C0.291476 4.34926 0 4.64074 0 5.00023C0 5.35966 0.291476 5.65119 0.650964 5.65119H11.7775L8.72266 8.70609C8.46842 8.96033 8.46842 9.37247 8.72266 9.62671C8.84973 9.75372 9.01637 9.81736 9.18297 9.81736C9.34956 9.81736 9.51616 9.75372 9.64328 9.62671L13.8093 5.46054C14.0636 5.2063 14.0636 4.79416 13.8093 4.53992Z" fill="#2E2E2E"/>
</svg>
