<svg width="10" height="10" viewBox="0 0 10 10" fill="none" xmlns="http://www.w3.org/2000/svg">
<path fill-rule="evenodd" clip-rule="evenodd" d="M9.75523 8.57343L7.58279 6.40103C7.57124 6.38948 7.5577 6.38141 7.54563 6.37066C7.9731 5.72224 8.22258 4.94605 8.22258 4.11133C8.22258 1.8407 6.38189 0 4.11129 0C1.8407 0 0 1.8407 0 4.11129C0 6.38185 1.84066 8.22258 4.11125 8.22258C4.94601 8.22258 5.72216 7.9731 6.37058 7.54563C6.38133 7.55766 6.38936 7.5712 6.40091 7.58275L8.57339 9.75523C8.89974 10.0815 9.42883 10.0815 9.75523 9.75523C10.0815 9.42887 10.0815 8.89978 9.75523 8.57343ZM4.11129 6.79733C2.62779 6.79733 1.42522 5.59476 1.42522 4.11129C1.42522 2.62779 2.62783 1.42522 4.11129 1.42522C5.59472 1.42522 6.79733 2.62783 6.79733 4.11129C6.79733 5.59476 5.59472 6.79733 4.11129 6.79733Z" fill="black"/>
</svg>
