<svg width="14" height="14" viewBox="0 0 14 14" fill="none" xmlns="http://www.w3.org/2000/svg">
<path fill-rule="evenodd" clip-rule="evenodd" d="M13.6573 12.0028L10.6159 8.96144C10.5997 8.94527 10.5808 8.93397 10.5639 8.91893C11.1623 8.01113 11.5116 6.92447 11.5116 5.75587C11.5116 2.57697 8.93465 0 5.75581 0C2.57697 0 0 2.57697 0 5.75581C0 8.93459 2.57692 11.5116 5.75575 11.5116C6.92441 11.5116 8.01102 11.1623 8.91882 10.5639C8.93386 10.5807 8.9451 10.5997 8.96127 10.6158L12.0027 13.6573C12.4596 14.1142 13.2004 14.1142 13.6573 13.6573C14.1142 13.2004 14.1142 12.4597 13.6573 12.0028ZM5.75581 9.51626C3.67891 9.51626 1.9953 7.83266 1.9953 5.75581C1.9953 3.67891 3.67896 1.9953 5.75581 1.9953C7.8326 1.9953 9.51626 3.67896 9.51626 5.75581C9.51626 7.83266 7.8326 9.51626 5.75581 9.51626Z" fill="black"/>
</svg>
