<svg width="30" height="21" viewBox="0 0 30 21" fill="none" xmlns="http://www.w3.org/2000/svg">
<path d="M21.7168 19.0703C21.7168 19.7259 21.1123 20.2622 20.3735 20.2622H1.34377C0.604963 20.2622 0.000488281 19.7259 0.000488281 19.0703C0.000488281 18.4148 0.604963 17.8784 1.34377 17.8784H20.3735C21.1123 17.8784 21.7168 18.4148 21.7168 19.0703Z" fill="#1B3245"/>
<path d="M20.3735 11.3236H1.34377C0.604963 11.3236 0.000488281 10.7872 0.000488281 10.1316C0.000488281 9.47607 0.604963 8.9397 1.34377 8.9397H20.3735C21.1123 8.9397 21.7168 9.47607 21.7168 10.1316C21.7168 10.7872 21.1123 11.3236 20.3735 11.3236Z" fill="#1B3245"/>
<path d="M20.3735 2.38385H1.34377C0.604963 2.38385 0.000488281 1.84748 0.000488281 1.19193C0.000488281 0.536366 0.604963 0 1.34377 0H20.3735C21.1123 0 21.7168 0.536366 21.7168 1.19193C21.7168 1.84748 21.1123 2.38385 20.3735 2.38385Z" fill="#1B3245"/>
<path d="M28.6567 20.2622H26.418C25.6792 20.2622 25.0747 19.7259 25.0747 19.0703C25.0747 18.4148 25.6792 17.8784 26.418 17.8784H28.6567C29.3955 17.8784 30 18.4148 30 19.0703C30 19.7259 29.3955 20.2622 28.6567 20.2622Z" fill="#1B3245"/>
<path d="M28.6567 11.3236H26.418C25.6792 11.3236 25.0747 10.7872 25.0747 10.1316C25.0747 9.47607 25.6792 8.9397 26.418 8.9397H28.6567C29.3955 8.9397 30 9.47607 30 10.1316C30 10.7872 29.3955 11.3236 28.6567 11.3236Z" fill="#1B3245"/>
<path d="M28.6567 2.38385H26.418C25.6792 2.38385 25.0747 1.84748 25.0747 1.19193C25.0747 0.536366 25.6792 0 26.418 0H28.6567C29.3955 0 30 0.536366 30 1.19193C30 1.84748 29.3955 2.38385 28.6567 2.38385Z" fill="#1B3245"/>
</svg>
